<svg width="16" height="17" viewBox="0 0 16 17" fill="none" xmlns="http://www.w3.org/2000/svg">
<g opacity="0.7">
<path d="M8.00044 14.9517C9.78199 14.9517 11.3949 14.2296 12.5624 13.062C13.7299 11.8945 14.4521 10.2816 14.4521 8.50007C14.4521 6.71853 13.7299 5.10562 12.5624 3.93809C11.3949 2.77058 9.78199 2.04846 8.00044 2.04846C6.21889 2.04846 4.60599 2.77058 3.43846 3.93809C2.27095 5.10562 1.54883 6.71853 1.54883 8.50007C1.54883 10.2816 2.27095 11.8945 3.43846 13.062C4.60599 14.2296 6.21889 14.9517 8.00044 14.9517Z" stroke="white" stroke-width="1.5" stroke-linejoin="round"/>
<path fill-rule="evenodd" clip-rule="evenodd" d="M7.99935 4.16675C8.45958 4.16675 8.83268 4.53985 8.83268 5.00008C8.83268 5.46031 8.45958 5.83341 7.99935 5.83341C7.53912 5.83341 7.16602 5.46031 7.16602 5.00008C7.16602 4.53985 7.53912 4.16675 7.99935 4.16675Z" fill="white"/>
<path d="M8.16667 11.8334V7.16675H7.83333H7.5" stroke="white" stroke-width="1.5" stroke-linecap="round" stroke-linejoin="round"/>
<path d="M7 11.8334H9.33333" stroke="white" stroke-width="1.5" stroke-linecap="round" stroke-linejoin="round"/>
</g>
</svg>
