<svg width="48" height="48" viewBox="0 0 48 48" fill="none" xmlns="http://www.w3.org/2000/svg">
<path d="M24 17L40 24L24 31V17Z" fill="url(#paint0_linear_12233_25406)"/>
<path d="M24 17L8 24L24 31V17Z" fill="url(#paint1_linear_12233_25406)"/>
<path d="M24 31L40 24V38L24 45V31Z" fill="url(#paint2_linear_12233_25406)"/>
<path d="M24 31L40 24L44 29.5L28 36.5L24 31Z" fill="url(#paint3_linear_12233_25406)"/>
<path d="M24 31L8 24V38L24 45V31Z" fill="url(#paint4_linear_12233_25406)"/>
<path d="M24 31L8 24L4 29.5L20 36.5L24 31Z" fill="url(#paint5_linear_12233_25406)"/>
<path d="M7 6C7 4.89543 7.89543 4 9 4H28C29.1046 4 30 4.89543 30 6V16.96C30 18.0646 29.1046 18.96 28 18.96H10.8124C10.4348 18.96 10.0649 19.0669 9.74546 19.2684L7 21V6Z" fill="url(#paint6_linear_12233_25406)"/>
<path d="M41 13C41 11.8954 40.1046 11 39 11H20C18.8954 11 18 11.8954 18 13V23.96C18 25.0646 18.8954 25.96 20 25.96H37.1876C37.5652 25.96 37.9351 26.0669 38.2545 26.2684L41 28V13Z" fill="url(#paint7_linear_12233_25406)"/>
<rect x="22" y="16" width="16" height="2" rx="1" fill="white"/>
<rect x="10" y="8" width="16" height="2" rx="1" fill="white"/>
<rect opacity="0.6" x="27" y="20" width="11" height="2" rx="1" fill="white"/>
<rect opacity="0.6" x="10" y="12" width="5" height="2" rx="1" fill="white"/>
<defs>
<linearGradient id="paint0_linear_12233_25406" x1="32" y1="17" x2="32" y2="31" gradientUnits="userSpaceOnUse">
<stop stop-color="#007A64"/>
<stop offset="1" stop-color="#007A64" stop-opacity="0"/>
</linearGradient>
<linearGradient id="paint1_linear_12233_25406" x1="16" y1="17" x2="16" y2="31" gradientUnits="userSpaceOnUse">
<stop stop-color="#007A64"/>
<stop offset="1" stop-color="#007A64" stop-opacity="0"/>
</linearGradient>
<linearGradient id="paint2_linear_12233_25406" x1="32" y1="24" x2="32" y2="49.5" gradientUnits="userSpaceOnUse">
<stop stop-color="#0CA287"/>
<stop offset="1" stop-color="#0CA287" stop-opacity="0"/>
</linearGradient>
<linearGradient id="paint3_linear_12233_25406" x1="17.5" y1="31" x2="46.5" y2="32" gradientUnits="userSpaceOnUse">
<stop stop-color="#38EBCB"/>
<stop offset="1" stop-color="#018C73"/>
</linearGradient>
<linearGradient id="paint4_linear_12233_25406" x1="16" y1="29" x2="16" y2="53.5" gradientUnits="userSpaceOnUse">
<stop stop-color="#0CA287"/>
<stop offset="1" stop-color="#004639"/>
</linearGradient>
<linearGradient id="paint5_linear_12233_25406" x1="7.5" y1="23" x2="15.5" y2="37" gradientUnits="userSpaceOnUse">
<stop stop-color="#08BD9D"/>
<stop offset="1" stop-color="#38EBCB"/>
</linearGradient>
<linearGradient id="paint6_linear_12233_25406" x1="0.5" y1="2.5" x2="33.5" y2="21" gradientUnits="userSpaceOnUse">
<stop stop-color="#39BAC2"/>
<stop offset="1" stop-color="#08827B"/>
</linearGradient>
<linearGradient id="paint7_linear_12233_25406" x1="16" y1="12" x2="47" y2="28" gradientUnits="userSpaceOnUse">
<stop stop-color="#44C7E4"/>
<stop offset="1" stop-color="#0E5268"/>
</linearGradient>
</defs>
</svg>
