<svg width="48" height="48" viewBox="0 0 48 48" fill="none" xmlns="http://www.w3.org/2000/svg">
<path d="M24 17L40 24L24 31V17Z" fill="url(#paint0_linear_12233_25449)"/>
<path d="M24 17L8 24L24 31V17Z" fill="url(#paint1_linear_12233_25449)"/>
<path d="M24 31L40 24V38L24 45V31Z" fill="url(#paint2_linear_12233_25449)"/>
<path d="M24 31L40 24L44 29.5L28 36.5L24 31Z" fill="url(#paint3_linear_12233_25449)"/>
<path d="M24 31L8 24V38L24 45V31Z" fill="url(#paint4_linear_12233_25449)"/>
<path d="M24 31L8 24L4 29.5L20 36.5L24 31Z" fill="url(#paint5_linear_12233_25449)"/>
<path d="M7 6C7 4.89543 7.89543 4 9 4H28C29.1046 4 30 4.89543 30 6V16.96C30 18.0646 29.1046 18.96 28 18.96H10.8124C10.4348 18.96 10.0649 19.0669 9.74546 19.2684L7 21V6Z" fill="url(#paint6_linear_12233_25449)"/>
<path opacity="0.6" d="M16.6016 13.7656C16.6016 13.3854 16.625 13.0677 16.6719 12.8125C16.7188 12.5521 16.7943 12.3229 16.8984 12.125C17.0078 11.9271 17.1615 11.7318 17.3594 11.5391C17.5573 11.3464 17.8125 11.1276 18.125 10.8828C18.3958 10.6641 18.6198 10.4375 18.7969 10.2031C18.974 9.96875 19.1094 9.72656 19.2031 9.47656C19.2969 9.22656 19.3438 8.96875 19.3438 8.70312C19.3438 8.25521 19.2188 7.90625 18.9688 7.65625C18.724 7.40104 18.3776 7.27344 17.9297 7.27344C17.5547 7.27344 17.2318 7.3776 16.9609 7.58594C16.6953 7.79427 16.5599 8.10677 16.5547 8.52344H14.3438L14.3203 8.47656C14.3099 7.84115 14.4557 7.29948 14.7578 6.85156C15.0651 6.39844 15.4896 6.05469 16.0312 5.82031C16.5781 5.58073 17.2083 5.46094 17.9219 5.46094C19.0833 5.46094 19.9896 5.7474 20.6406 6.32031C21.2969 6.88802 21.625 7.66146 21.625 8.64062C21.625 9.09375 21.5365 9.51302 21.3594 9.89844C21.1875 10.2839 20.9479 10.6484 20.6406 10.9922C20.3385 11.3359 19.987 11.6771 19.5859 12.0156C19.388 12.1823 19.237 12.3438 19.1328 12.5C19.0339 12.651 18.9661 12.8281 18.9297 13.0312C18.8984 13.2292 18.8828 13.474 18.8828 13.7656H16.6016ZM16.6016 17V15H18.8828V17H16.6016Z" fill="white"/>
<path d="M41 13C41 11.8954 40.1046 11 39 11H20C18.8954 11 18 11.8954 18 13V23.96C18 25.0646 18.8954 25.96 20 25.96H37.1876C37.5652 25.96 37.9351 26.0669 38.2545 26.2684L41 28V13Z" fill="url(#paint7_linear_12233_25449)"/>
<path d="M27.6016 21.7656C27.6016 21.3854 27.625 21.0677 27.6719 20.8125C27.7188 20.5521 27.7943 20.3229 27.8984 20.125C28.0078 19.9271 28.1615 19.7318 28.3594 19.5391C28.5573 19.3464 28.8125 19.1276 29.125 18.8828C29.3958 18.6641 29.6198 18.4375 29.7969 18.2031C29.974 17.9688 30.1094 17.7266 30.2031 17.4766C30.2969 17.2266 30.3438 16.9688 30.3438 16.7031C30.3438 16.2552 30.2188 15.9062 29.9688 15.6562C29.724 15.401 29.3776 15.2734 28.9297 15.2734C28.5547 15.2734 28.2318 15.3776 27.9609 15.5859C27.6953 15.7943 27.5599 16.1068 27.5547 16.5234H25.3438L25.3203 16.4766C25.3099 15.8411 25.4557 15.2995 25.7578 14.8516C26.0651 14.3984 26.4896 14.0547 27.0312 13.8203C27.5781 13.5807 28.2083 13.4609 28.9219 13.4609C30.0833 13.4609 30.9896 13.7474 31.6406 14.3203C32.2969 14.888 32.625 15.6615 32.625 16.6406C32.625 17.0938 32.5365 17.513 32.3594 17.8984C32.1875 18.2839 31.9479 18.6484 31.6406 18.9922C31.3385 19.3359 30.987 19.6771 30.5859 20.0156C30.388 20.1823 30.237 20.3438 30.1328 20.5C30.0339 20.651 29.9661 20.8281 29.9297 21.0312C29.8984 21.2292 29.8828 21.474 29.8828 21.7656H27.6016ZM27.6016 25V23H29.8828V25H27.6016Z" fill="white"/>
<defs>
<linearGradient id="paint0_linear_12233_25449" x1="32" y1="17" x2="32" y2="31" gradientUnits="userSpaceOnUse">
<stop stop-color="#007A64"/>
<stop offset="1" stop-color="#007A64" stop-opacity="0"/>
</linearGradient>
<linearGradient id="paint1_linear_12233_25449" x1="16" y1="17" x2="16" y2="31" gradientUnits="userSpaceOnUse">
<stop stop-color="#007A64"/>
<stop offset="1" stop-color="#007A64" stop-opacity="0"/>
</linearGradient>
<linearGradient id="paint2_linear_12233_25449" x1="32" y1="24" x2="32" y2="49.5" gradientUnits="userSpaceOnUse">
<stop stop-color="#0CA287"/>
<stop offset="1" stop-color="#0CA287" stop-opacity="0"/>
</linearGradient>
<linearGradient id="paint3_linear_12233_25449" x1="17.5" y1="31" x2="46.5" y2="32" gradientUnits="userSpaceOnUse">
<stop stop-color="#38EBCB"/>
<stop offset="1" stop-color="#018C73"/>
</linearGradient>
<linearGradient id="paint4_linear_12233_25449" x1="16" y1="29" x2="16" y2="53.5" gradientUnits="userSpaceOnUse">
<stop stop-color="#0CA287"/>
<stop offset="1" stop-color="#004639"/>
</linearGradient>
<linearGradient id="paint5_linear_12233_25449" x1="7.5" y1="23" x2="15.5" y2="37" gradientUnits="userSpaceOnUse">
<stop stop-color="#08BD9D"/>
<stop offset="1" stop-color="#38EBCB"/>
</linearGradient>
<linearGradient id="paint6_linear_12233_25449" x1="0.5" y1="2.5" x2="33.5" y2="21" gradientUnits="userSpaceOnUse">
<stop stop-color="#39BAC2"/>
<stop offset="1" stop-color="#08827B"/>
</linearGradient>
<linearGradient id="paint7_linear_12233_25449" x1="16" y1="12" x2="47" y2="28" gradientUnits="userSpaceOnUse">
<stop stop-color="#44C7E4"/>
<stop offset="1" stop-color="#0E5268"/>
</linearGradient>
</defs>
</svg>
